<svg width="1512" height="398" viewBox="0 0 1512 398" fill="none" xmlns="http://www.w3.org/2000/svg">
<path d="M522.317 1L-383 397" stroke="#B3B3B3" stroke-opacity="0.08"/>
<path d="M535.688 1L-251.541 397" stroke="#B3B3B3" stroke-opacity="0.08"/>
<path d="M549.06 1L-141.247 397" stroke="#B3B3B3" stroke-opacity="0.08"/>
<path d="M562.431 1L-46.355 397" stroke="#B3B3B3" stroke-opacity="0.08"/>
<path d="M575.802 1L37.0037 397" stroke="#B3B3B3" stroke-opacity="0.08"/>
<path d="M589.173 1L111.527 397" stroke="#B3B3B3" stroke-opacity="0.08"/>
<path d="M602.545 1L179.158 397" stroke="#B3B3B3" stroke-opacity="0.08"/>
<path d="M615.916 1L241.333 397" stroke="#B3B3B3" stroke-opacity="0.08"/>
<path d="M629.287 1L299.14 397" stroke="#B3B3B3" stroke-opacity="0.08"/>
<path d="M642.658 1L353.425 397" stroke="#B3B3B3" stroke-opacity="0.08"/>
<path d="M656.03 1L404.853 397" stroke="#B3B3B3" stroke-opacity="0.08"/>
<path d="M669.401 1L453.964 397" stroke="#B3B3B3" stroke-opacity="0.08"/>
<path d="M682.772 1L501.199 397" stroke="#B3B3B3" stroke-opacity="0.08"/>
<path d="M696.144 1L546.931 397" stroke="#B3B3B3" stroke-opacity="0.08"/>
<path d="M709.515 1L591.478 397" stroke="#B3B3B3" stroke-opacity="0.08"/>
<path d="M722.886 1L635.118 397" stroke="#B3B3B3" stroke-opacity="0.08"/>
<path d="M736.257 1L678.1 397" stroke="#B3B3B3" stroke-opacity="0.08"/>
<path d="M749.629 1L720.655 397" stroke="#B3B3B3" stroke-opacity="0.08"/>
<path d="M763 1V397" stroke="#B3B3B3" stroke-opacity="0.08"/>
<path d="M776.371 1L805.344 397" stroke="#B3B3B3" stroke-opacity="0.08"/>
<path d="M789.743 1L847.899 397" stroke="#B3B3B3" stroke-opacity="0.08"/>
<path d="M803.114 1L890.882 397" stroke="#B3B3B3" stroke-opacity="0.08"/>
<path d="M816.485 1L934.522 397" stroke="#B3B3B3" stroke-opacity="0.08"/>
<path d="M829.856 1L979.068 397" stroke="#B3B3B3" stroke-opacity="0.08"/>
<path d="M843.228 1L1024.8 397" stroke="#B3B3B3" stroke-opacity="0.08"/>
<path d="M856.599 1L1072.04 397" stroke="#B3B3B3" stroke-opacity="0.08"/>
<path d="M869.97 1L1121.15 397" stroke="#B3B3B3" stroke-opacity="0.08"/>
<path d="M883.341 1L1172.57 397" stroke="#B3B3B3" stroke-opacity="0.08"/>
<path d="M896.713 1L1226.86 397" stroke="#B3B3B3" stroke-opacity="0.08"/>
<path d="M910.084 1L1284.67 397" stroke="#B3B3B3" stroke-opacity="0.08"/>
<path d="M923.455 1L1346.84 397" stroke="#B3B3B3" stroke-opacity="0.08"/>
<path d="M936.827 1L1414.47 397" stroke="#B3B3B3" stroke-opacity="0.08"/>
<path d="M950.198 1L1489 397" stroke="#B3B3B3" stroke-opacity="0.08"/>
<path d="M963.569 1L1572.36 397" stroke="#B3B3B3" stroke-opacity="0.08"/>
<path d="M976.94 1L1667.25 397" stroke="#B3B3B3" stroke-opacity="0.08"/>
<path d="M990.312 1L1777.54 397" stroke="#B3B3B3" stroke-opacity="0.08"/>
<path d="M1003.68 1L1909 397" stroke="#B3B3B3" stroke-opacity="0.08"/>
<path d="M518.706 2.57962L1007.29 2.57962" stroke="#B3B3B3" stroke-opacity="0.02"/>
<path d="M517.578 3.07281L1008.42 3.07281" stroke="#B3B3B3" stroke-opacity="0.02"/>
<path d="M516.16 3.69327L1009.84 3.69327" stroke="#B3B3B3" stroke-opacity="0.02"/>
<path d="M514.39 4.46741L1011.61 4.46741" stroke="#B3B3B3" stroke-opacity="0.02"/>
<path d="M512.198 5.42603L1013.8 5.42603" stroke="#B3B3B3" stroke-opacity="0.08"/>
<path d="M509.504 6.60461L1016.5 6.60461" stroke="#B3B3B3" stroke-opacity="0.08"/>
<path d="M506.213 8.04401L1019.79 8.04401" stroke="#B3B3B3" stroke-opacity="0.08"/>
<path d="M502.219 9.79105L1023.78 9.79105" stroke="#B3B3B3" stroke-opacity="0.08"/>
<path d="M497.4 11.899L1028.6 11.899" stroke="#B3B3B3" stroke-opacity="0.08"/>
<path d="M491.617 14.4286L1034.38 14.4286" stroke="#B3B3B3" stroke-opacity="0.08"/>
<path d="M484.714 17.4482L1041.29 17.4482" stroke="#B3B3B3" stroke-opacity="0.08"/>
<path d="M476.513 21.0352L1049.49 21.0352" stroke="#B3B3B3" stroke-opacity="0.08"/>
<path d="M466.818 25.2763L1059.18 25.2763" stroke="#B3B3B3" stroke-opacity="0.08"/>
<path d="M455.404 30.2689L1070.6 30.2689" stroke="#B3B3B3" stroke-opacity="0.08"/>
<path d="M442.024 36.1215H1083.98" stroke="#B3B3B3" stroke-opacity="0.08"/>
<path d="M426.401 42.9551H1099.6" stroke="#B3B3B3" stroke-opacity="0.08"/>
<path d="M408.229 50.9041H1117.77" stroke="#B3B3B3" stroke-opacity="0.08"/>
<path d="M387.166 60.1172H1138.83" stroke="#B3B3B3" stroke-opacity="0.08"/>
<path d="M362.837 70.759H1163.16" stroke="#B3B3B3" stroke-opacity="0.08"/>
<path d="M334.828 83.0109H1191.17" stroke="#B3B3B3" stroke-opacity="0.08"/>
<path d="M302.681 97.0722H1223.32" stroke="#B3B3B3" stroke-opacity="0.08"/>
<path d="M265.898 113.162H1260.1" stroke="#B3B3B3" stroke-opacity="0.08"/>
<path d="M223.928 131.52H1302.07" stroke="#B3B3B3" stroke-opacity="0.08"/>
<path d="M176.172 152.409H1349.83" stroke="#B3B3B3" stroke-opacity="0.08"/>
<path d="M121.975 176.116H1404.02" stroke="#B3B3B3" stroke-opacity="0.08"/>
<path d="M60.6254 202.951H1465.37" stroke="#B3B3B3" stroke-opacity="0.08"/>
<path d="M-8.65393 233.255H1534.65" stroke="#B3B3B3" stroke-opacity="0.08"/>
<path d="M-86.705 267.396H1612.71" stroke="#B3B3B3" stroke-opacity="0.08"/>
<path d="M-174.441 305.773H1700.44" stroke="#B3B3B3" stroke-opacity="0.08"/>
<path d="M-272.85 348.818H1798.85" stroke="#B3B3B3" stroke-opacity="0.08"/>
<path d="M-383 397H1909" stroke="#B3B3B3" stroke-opacity="0.08"/>
</svg>
