<svg width="277" height="22" viewBox="0 0 277 22" fill="none" xmlns="http://www.w3.org/2000/svg">
<path d="M2.16161 3.746C62.0435 5.69602 121.715 6.65327 181.605 6.65327C204.426 6.65327 226.916 4.71509 249.711 4.71509C261.605 4.71509 258 4.20594 266.939 2.83074C269.656 2.41275 279.614 0.664112 272.431 4.76893C267.901 7.35703 263.455 8.73725 258.217 9.34519C239.497 11.5181 220.282 10.5296 201.472 10.5296C188.672 10.5296 175.823 10.2229 163.031 10.745C148.863 11.3233 135.045 14.5441 120.929 15.6981C109.007 16.6729 96.8126 15.2491 84.9651 16.7749C77.5849 17.7254 70.4744 19.4626 62.9991 20.0052C55.6765 20.5367 48.2632 20.2206 40.9253 20.2206" stroke="white" strokeWidth="3" strokeLinecap="round"/>
</svg>
