<svg width="176" height="63" viewBox="0 0 176 63" fill="none" xmlns="http://www.w3.org/2000/svg">
<path d="M26.6625 19.519C26.6625 9.06561 35.1367 0.591484 45.59 0.591484H159.155C167.975 0.591484 175.125 7.74152 175.125 16.5615C175.125 25.3816 167.975 32.5316 159.155 32.5316H26.6625V19.519Z" fill="#67914F"/>
<path d="M26.6625 19.519C26.6625 9.06561 35.1367 0.591484 45.59 0.591484H159.155C167.975 0.591484 175.125 7.74152 175.125 16.5615C175.125 25.3816 167.975 32.5316 159.155 32.5316H26.6625V19.519Z" stroke="#C0C8BA" strokeWidth="1.18297"/>
<path d="M48.9838 12.1504C50.0478 12.1504 50.9396 12.2821 51.659 12.5456C52.3785 12.8091 52.951 13.1688 53.3766 13.6248C53.8022 14.0707 54.1062 14.5875 54.2886 15.1752C54.4812 15.7629 54.5774 16.3811 54.5774 17.0296C54.5774 17.6883 54.4761 18.3165 54.2734 18.9144C54.0708 19.5123 53.7465 20.0443 53.3006 20.5104C52.8649 20.9664 52.2924 21.3312 51.583 21.6048C50.8737 21.8683 50.0073 22 48.9838 22H44.2566V12.1504H48.9838ZM45.9894 20.48H48.9686C49.7185 20.48 50.3417 20.3837 50.8382 20.1912C51.3348 19.9987 51.73 19.7403 52.0238 19.416C52.3177 19.0816 52.5254 18.7117 52.647 18.3064C52.7686 17.8909 52.8294 17.4653 52.8294 17.0296C52.8294 16.5939 52.7686 16.1784 52.647 15.7832C52.5254 15.3779 52.3177 15.0181 52.0238 14.704C51.73 14.3797 51.3348 14.1264 50.8382 13.944C50.3417 13.7515 49.7185 13.6552 48.9686 13.6552H45.9894V20.48ZM62.6124 19.5072H64.2388C64.1578 20.024 63.9551 20.4851 63.6308 20.8904C63.3167 21.2856 62.886 21.5997 62.3388 21.8328C61.7916 22.0557 61.138 22.1672 60.378 22.1672C59.5167 22.1672 58.7466 22.0101 58.0676 21.696C57.3887 21.3717 56.8567 20.9157 56.4716 20.328C56.0866 19.7403 55.894 19.0411 55.894 18.2304C55.894 17.4299 56.0815 16.7307 56.4564 16.1328C56.8314 15.5349 57.3482 15.0739 58.0068 14.7496C58.6756 14.4253 59.4458 14.2632 60.3172 14.2632C61.2191 14.2632 61.969 14.4253 62.5668 14.7496C63.1748 15.0637 63.6258 15.54 63.9196 16.1784C64.2135 16.8067 64.3351 17.6021 64.2844 18.5648H57.6116C57.6623 18.9904 57.7991 19.3755 58.022 19.72C58.2551 20.0544 58.5692 20.3179 58.9644 20.5104C59.3596 20.6928 59.8207 20.784 60.3476 20.784C60.9354 20.784 61.4268 20.6675 61.822 20.4344C62.2274 20.2013 62.4908 19.8923 62.6124 19.5072ZM60.2716 15.6312C59.5826 15.6312 59.0151 15.8035 58.5692 16.148C58.1234 16.4824 57.8346 16.9131 57.7028 17.44H62.582C62.5415 16.8725 62.3135 16.4317 61.898 16.1176C61.4826 15.7933 60.9404 15.6312 60.2716 15.6312ZM69.2308 20.7992H68.638L71.2524 14.4304H73.0916L69.7476 22H68.1364L64.838 14.4304H66.6924L69.2308 20.7992ZM80.3359 19.5072H81.9623C81.8812 20.024 81.6785 20.4851 81.3543 20.8904C81.0401 21.2856 80.6095 21.5997 80.0623 21.8328C79.5151 22.0557 78.8615 22.1672 78.1015 22.1672C77.2401 22.1672 76.47 22.0101 75.7911 21.696C75.1121 21.3717 74.5801 20.9157 74.1951 20.328C73.81 19.7403 73.6175 19.0411 73.6175 18.2304C73.6175 17.4299 73.8049 16.7307 74.1799 16.1328C74.5548 15.5349 75.0716 15.0739 75.7303 14.7496C76.3991 14.4253 77.1692 14.2632 78.0407 14.2632C78.9425 14.2632 79.6924 14.4253 80.2903 14.7496C80.8983 15.0637 81.3492 15.54 81.6431 16.1784C81.9369 16.8067 82.0585 17.6021 82.0079 18.5648H75.3351C75.3857 18.9904 75.5225 19.3755 75.7455 19.72C75.9785 20.0544 76.2927 20.3179 76.6879 20.5104C77.0831 20.6928 77.5441 20.784 78.0711 20.784C78.6588 20.784 79.1503 20.6675 79.5455 20.4344C79.9508 20.2013 80.2143 19.8923 80.3359 19.5072ZM77.9951 15.6312C77.306 15.6312 76.7385 15.8035 76.2927 16.148C75.8468 16.4824 75.558 16.9131 75.4263 17.44H80.3055C80.2649 16.8725 80.0369 16.4317 79.6215 16.1176C79.206 15.7933 78.6639 15.6312 77.9951 15.6312ZM83.6647 11.3904H85.3519V22H83.6647V11.3904ZM91.4297 22.1672C90.5887 22.1672 89.8337 22.0152 89.1649 21.7112C88.4961 21.4072 87.9692 20.9613 87.5841 20.3736C87.1991 19.7859 87.0065 19.0715 87.0065 18.2304C87.0065 17.3995 87.1991 16.6901 87.5841 16.1024C87.9692 15.5045 88.4961 15.0485 89.1649 14.7344C89.8337 14.4203 90.5887 14.2632 91.4297 14.2632C92.2708 14.2632 93.0207 14.4203 93.6793 14.7344C94.338 15.0485 94.8548 15.5045 95.2297 16.1024C95.6148 16.6901 95.8073 17.3995 95.8073 18.2304C95.8073 19.0715 95.6148 19.7859 95.2297 20.3736C94.8548 20.9613 94.338 21.4072 93.6793 21.7112C93.0207 22.0152 92.2708 22.1672 91.4297 22.1672ZM91.4297 20.784C91.9161 20.784 92.362 20.6877 92.7673 20.4952C93.1727 20.3027 93.4919 20.0139 93.7249 19.6288C93.9681 19.2437 94.0897 18.7776 94.0897 18.2304C94.0897 17.6832 93.9681 17.2171 93.7249 16.832C93.4919 16.4469 93.1727 16.1531 92.7673 15.9504C92.3721 15.7376 91.9263 15.6312 91.4297 15.6312C90.9332 15.6312 90.4823 15.7325 90.0769 15.9352C89.6716 16.1379 89.3423 16.4317 89.0889 16.8168C88.8457 17.2019 88.7241 17.6731 88.7241 18.2304C88.7241 18.7776 88.8457 19.2437 89.0889 19.6288C89.3321 20.0139 89.6564 20.3027 90.0617 20.4952C90.4772 20.6877 90.9332 20.784 91.4297 20.784ZM102.181 22.1672C101.563 22.1672 101.036 22.0456 100.601 21.8024C100.175 21.5592 99.8304 21.24 99.567 20.8448C99.3136 20.4395 99.1262 20.0088 99.0046 19.5528C98.883 19.0867 98.8222 18.6459 98.8222 18.2304C98.8222 17.6731 98.8779 17.1563 98.9894 16.68C99.111 16.2037 99.2984 15.7883 99.5518 15.4336C99.8152 15.0688 100.16 14.7851 100.585 14.5824C101.021 14.3696 101.553 14.2632 102.181 14.2632C102.891 14.2632 103.529 14.4355 104.097 14.78C104.664 15.1144 105.115 15.5805 105.449 16.1784C105.784 16.7661 105.951 17.4501 105.951 18.2304C105.951 19.0107 105.779 19.6997 105.434 20.2976C105.1 20.8853 104.649 21.3464 104.081 21.6808C103.514 22.0051 102.881 22.1672 102.181 22.1672ZM101.68 20.7688C102.186 20.7688 102.632 20.6624 103.017 20.4496C103.402 20.2368 103.701 19.9379 103.914 19.5528C104.127 19.1677 104.233 18.7269 104.233 18.2304C104.233 17.4704 104.01 16.8523 103.565 16.376C103.119 15.8896 102.49 15.6464 101.68 15.6464C101.173 15.6464 100.717 15.7528 100.312 15.9656C99.9064 16.1784 99.5872 16.4773 99.3542 16.8624C99.1211 17.2373 99.0046 17.6933 99.0046 18.2304C99.0046 18.7168 99.111 19.1525 99.3238 19.5376C99.5366 19.9227 99.8406 20.2267 100.236 20.4496C100.631 20.6624 101.112 20.7688 101.68 20.7688ZM97.3174 14.4304H98.9286L99.0046 16.2848V25.04H97.3174V14.4304ZM113.779 19.5072H115.405C115.324 20.024 115.121 20.4851 114.797 20.8904C114.483 21.2856 114.052 21.5997 113.505 21.8328C112.958 22.0557 112.304 22.1672 111.544 22.1672C110.683 22.1672 109.913 22.0101 109.234 21.696C108.555 21.3717 108.023 20.9157 107.638 20.328C107.253 19.7403 107.06 19.0411 107.06 18.2304C107.06 17.4299 107.248 16.7307 107.623 16.1328C107.998 15.5349 108.515 15.0739 109.173 14.7496C109.842 14.4253 110.612 14.2632 111.484 14.2632C112.385 14.2632 113.135 14.4253 113.733 14.7496C114.341 15.0637 114.792 15.54 115.086 16.1784C115.38 16.8067 115.501 17.6021 115.451 18.5648H108.778C108.829 18.9904 108.965 19.3755 109.188 19.72C109.421 20.0544 109.736 20.3179 110.131 20.5104C110.526 20.6928 110.987 20.784 111.514 20.784C112.102 20.784 112.593 20.6675 112.988 20.4344C113.394 20.2013 113.657 19.8923 113.779 19.5072ZM111.438 15.6312C110.749 15.6312 110.181 15.8035 109.736 16.148C109.29 16.4824 109.001 16.9131 108.869 17.44H113.748C113.708 16.8725 113.48 16.4317 113.064 16.1176C112.649 15.7933 112.107 15.6312 111.438 15.6312ZM116.956 14.4304H118.643V22H116.956V14.4304ZM121.835 14.2632C122.271 14.2632 122.671 14.324 123.036 14.4456C123.411 14.5672 123.73 14.7547 123.993 15.008C124.267 15.2512 124.475 15.5552 124.616 15.92C124.768 16.2848 124.844 16.7155 124.844 17.212V22H123.157V17.5464C123.157 16.9283 123.005 16.4723 122.701 16.1784C122.407 15.8744 121.941 15.7224 121.303 15.7224C120.816 15.7224 120.371 15.8288 119.965 16.0416C119.57 16.2443 119.246 16.5128 118.992 16.8472C118.739 17.1715 118.592 17.5312 118.552 17.9264L118.536 17.1056C118.587 16.7307 118.699 16.376 118.871 16.0416C119.043 15.6971 119.271 15.3931 119.555 15.1296C119.839 14.856 120.173 14.6432 120.558 14.4912C120.943 14.3392 121.369 14.2632 121.835 14.2632ZM127.869 14.2632C128.315 14.2632 128.72 14.324 129.085 14.4456C129.45 14.5672 129.764 14.7547 130.028 15.008C130.301 15.2512 130.514 15.5552 130.666 15.92C130.818 16.2848 130.894 16.7155 130.894 17.212V22H129.192V17.5464C129.192 16.9283 129.04 16.4723 128.736 16.1784C128.442 15.8744 127.976 15.7224 127.337 15.7224C126.851 15.7224 126.405 15.8288 126 16.0416C125.604 16.2443 125.28 16.5128 125.027 16.8472C124.784 17.1715 124.642 17.5312 124.601 17.9264L124.571 17.0752C124.621 16.7104 124.738 16.3608 124.92 16.0264C125.103 15.6819 125.336 15.3779 125.62 15.1144C125.903 14.8509 126.233 14.6432 126.608 14.4912C126.993 14.3392 127.413 14.2632 127.869 14.2632ZM139.073 19.5072H140.699C140.618 20.024 140.415 20.4851 140.091 20.8904C139.777 21.2856 139.346 21.5997 138.799 21.8328C138.252 22.0557 137.598 22.1672 136.838 22.1672C135.977 22.1672 135.207 22.0101 134.528 21.696C133.849 21.3717 133.317 20.9157 132.932 20.328C132.547 19.7403 132.354 19.0411 132.354 18.2304C132.354 17.4299 132.542 16.7307 132.917 16.1328C133.292 15.5349 133.808 15.0739 134.467 14.7496C135.136 14.4253 135.906 14.2632 136.777 14.2632C137.679 14.2632 138.429 14.4253 139.027 14.7496C139.635 15.0637 140.086 15.54 140.38 16.1784C140.674 16.8067 140.795 17.6021 140.745 18.5648H134.072C134.122 18.9904 134.259 19.3755 134.482 19.72C134.715 20.0544 135.029 20.3179 135.425 20.5104C135.82 20.6928 136.281 20.784 136.808 20.784C137.396 20.784 137.887 20.6675 138.282 20.4344C138.688 20.2013 138.951 19.8923 139.073 19.5072ZM136.732 15.6312C136.043 15.6312 135.475 15.8035 135.029 16.148C134.584 16.4824 134.295 16.9131 134.163 17.44H139.042C139.002 16.8725 138.774 16.4317 138.358 16.1176C137.943 15.7933 137.401 15.6312 136.732 15.6312ZM142.249 14.4304H143.937V22H142.249V14.4304ZM147.129 14.2632C147.564 14.2632 147.965 14.324 148.329 14.4456C148.704 14.5672 149.024 14.7547 149.287 15.008C149.561 15.2512 149.768 15.5552 149.91 15.92C150.062 16.2848 150.138 16.7155 150.138 17.212V22H148.451V17.5464C148.451 16.9283 148.299 16.4723 147.995 16.1784C147.701 15.8744 147.235 15.7224 146.597 15.7224C146.11 15.7224 145.664 15.8288 145.259 16.0416C144.864 16.2443 144.54 16.5128 144.286 16.8472C144.033 17.1715 143.886 17.5312 143.845 17.9264L143.83 17.1056C143.881 16.7307 143.992 16.376 144.165 16.0416C144.337 15.6971 144.565 15.3931 144.849 15.1296C145.132 14.856 145.467 14.6432 145.852 14.4912C146.237 14.3392 146.662 14.2632 147.129 14.2632ZM151.47 14.4304H156.82V15.8136H151.47V14.4304ZM153.294 12.3936H154.996V22H153.294V12.3936Z" fill="white"/>
<path d="M11.6794 53.3525C10.0542 53.9762 8.45818 52.3802 9.08183 50.7549L15.0091 35.3083C15.6525 33.6316 18.0041 33.5753 18.727 35.2194L21.0043 40.3987C21.2069 40.8594 21.5749 41.2275 22.0356 41.43L27.215 43.7073C28.859 44.4302 28.8028 46.7818 27.126 47.4253L11.6794 53.3525Z" fill="#729A5B"/>
</svg>
