<svg width="120" height="66" viewBox="0 0 120 66" fill="none" xmlns="http://www.w3.org/2000/svg">
<path d="M34.6324 30.6324H102.294C111.724 30.6324 119.368 38.2764 119.368 47.7059C119.368 57.1353 111.724 64.7794 102.294 64.7794H54.8676C43.692 64.7794 34.6324 55.7198 34.6324 44.5441V30.6324Z" fill="#E7C5AC"/>
<path d="M34.6324 30.6324H102.294C111.724 30.6324 119.368 38.2764 119.368 47.7059C119.368 57.1353 111.724 64.7794 102.294 64.7794H54.8676C43.692 64.7794 34.6324 55.7198 34.6324 44.5441V30.6324Z" stroke="#DAAB0F" stroke-width="1.26471"/>
<path d="M57.225 42.4014C58.3279 42.4014 59.2486 42.5329 59.9872 42.796C60.7258 43.0591 61.3126 43.4182 61.7476 43.8735C62.1928 44.3187 62.5065 44.8347 62.6886 45.4215C62.8808 46.0083 62.9769 46.6255 62.9769 47.2731C62.9769 47.9206 62.8707 48.5428 62.6582 49.1398C62.4559 49.7367 62.127 50.2679 61.6718 50.7333C61.2266 51.1886 60.6347 51.5528 59.8961 51.826C59.1676 52.0891 58.2773 52.2206 57.225 52.2206H51.6098V42.4014H57.225ZM53.6282 50.4905H57.1795C57.908 50.4905 58.51 50.4045 58.9855 50.2325C59.4712 50.0503 59.8556 49.8075 60.1389 49.504C60.4222 49.2005 60.6246 48.8565 60.746 48.472C60.8674 48.0875 60.9281 47.6879 60.9281 47.2731C60.9281 46.8582 60.8674 46.4636 60.746 46.0893C60.6246 45.7149 60.4222 45.3811 60.1389 45.0876C59.8556 44.7942 59.4712 44.5615 58.9855 44.3895C58.51 44.2175 57.908 44.1315 57.1795 44.1315H53.6282V50.4905ZM71.5654 49.7165H73.4776C73.3967 50.2325 73.1792 50.6928 72.825 51.0975C72.481 51.5022 72.0106 51.8209 71.4136 52.0536C70.8167 52.2863 70.0882 52.4027 69.2282 52.4027C68.267 52.4027 67.4172 52.2509 66.6786 51.9474C65.94 51.6338 65.3633 51.1835 64.9484 50.5967C64.5336 50.0099 64.3262 49.3016 64.3262 48.472C64.3262 47.6423 64.5286 46.9341 64.9333 46.3473C65.338 45.7503 65.8995 45.2951 66.6179 44.9814C67.3463 44.6678 68.1962 44.5109 69.1675 44.5109C70.159 44.5109 70.9836 44.6678 71.6413 44.9814C72.2989 45.2951 72.7846 45.7706 73.0982 46.408C73.422 47.0353 73.5586 47.8396 73.508 48.8211H66.3143C66.3649 49.2055 66.5066 49.5546 66.7393 49.8682C66.9821 50.1819 67.3059 50.4298 67.7106 50.6119C68.1254 50.794 68.6161 50.8851 69.1827 50.8851C69.81 50.8851 70.331 50.7788 70.7459 50.5663C71.1708 50.3438 71.444 50.0605 71.5654 49.7165ZM69.0764 46.0134C68.348 46.0134 67.7561 46.1753 67.3008 46.4991C66.8455 46.8127 66.5521 47.2022 66.4206 47.6676H71.5502C71.4996 47.1618 71.2568 46.7621 70.8217 46.4687C70.3968 46.1652 69.815 46.0134 69.0764 46.0134ZM74.6725 49.7165H76.4937C76.605 50.0605 76.8326 50.3438 77.1766 50.5663C77.5308 50.7788 77.9911 50.8851 78.5577 50.8851C78.9422 50.8851 79.2406 50.8496 79.4531 50.7788C79.6656 50.708 79.8123 50.6068 79.8932 50.4753C79.9742 50.3336 80.0146 50.1768 80.0146 50.0048C80.0146 49.7923 79.9489 49.6305 79.8174 49.5192C79.6858 49.3978 79.4835 49.3016 79.2103 49.2308C78.9371 49.16 78.5881 49.0942 78.1631 49.0335C77.7382 48.9627 77.3284 48.8767 76.9338 48.7755C76.5392 48.6743 76.1902 48.5428 75.8866 48.3809C75.5831 48.2089 75.3403 47.9965 75.1582 47.7435C74.9862 47.4805 74.9002 47.1618 74.9002 46.7874C74.9002 46.4232 74.9862 46.0994 75.1582 45.8161C75.3403 45.5328 75.5882 45.2951 75.9018 45.1028C76.2256 44.9106 76.5999 44.7639 77.0249 44.6627C77.4599 44.5615 77.9254 44.5109 78.4211 44.5109C79.1698 44.5109 79.7921 44.6222 80.2878 44.8448C80.7836 45.0573 81.1529 45.3608 81.3957 45.7554C81.6486 46.1399 81.7751 46.5851 81.7751 47.0909H80.0298C79.9489 46.7166 79.787 46.4485 79.5442 46.2866C79.3014 46.1146 78.927 46.0286 78.4211 46.0286C77.9254 46.0286 77.551 46.1045 77.2981 46.2562C77.0451 46.408 76.9186 46.6154 76.9186 46.8785C76.9186 47.0909 76.9945 47.2579 77.1463 47.3793C77.3082 47.4906 77.5409 47.5816 77.8444 47.6525C78.1581 47.7233 78.5476 47.7992 79.013 47.8801C79.4076 47.9611 79.7819 48.0521 80.1361 48.1533C80.5003 48.2545 80.8241 48.386 81.1074 48.5479C81.3906 48.6996 81.6132 48.9071 81.7751 49.1701C81.9471 49.4231 82.0331 49.7468 82.0331 50.1414C82.0331 50.6271 81.8915 51.0368 81.6082 51.3707C81.335 51.7046 80.9404 51.9626 80.4244 52.1447C79.9084 52.3167 79.2912 52.4027 78.5729 52.4027C77.9355 52.4027 77.3841 52.3369 76.9186 52.2054C76.4634 52.0638 76.0839 51.8867 75.7804 51.6742C75.4769 51.4516 75.2391 51.2189 75.0671 50.9761C74.9052 50.7232 74.7939 50.4854 74.7332 50.2628C74.6725 50.0402 74.6523 49.8581 74.6725 49.7165ZM87.3062 51.0672C86.4867 51.0672 85.7633 50.9458 85.136 50.7029C84.5188 50.45 84.0382 50.0807 83.6942 49.5951C83.3502 49.1094 83.1782 48.5226 83.1782 47.8346C83.1782 47.1567 83.3452 46.5699 83.6791 46.0741C84.0129 45.5783 84.4885 45.1939 85.1056 44.9207C85.7329 44.6475 86.4665 44.5109 87.3062 44.5109C87.5389 44.5109 87.7615 44.5261 87.974 44.5565C88.1966 44.5868 88.4141 44.6273 88.6266 44.6779L92.4359 44.6931V46.1803C91.9199 46.1905 91.3938 46.1298 90.8575 45.9982C90.3314 45.8566 89.866 45.7048 89.4613 45.5429L89.4158 45.4367C89.7598 45.5986 90.0835 45.8009 90.3871 46.0438C90.6906 46.2765 90.9334 46.5496 91.1155 46.8633C91.3078 47.1668 91.4039 47.5209 91.4039 47.9256C91.4039 48.5833 91.2369 49.1499 90.9031 49.6254C90.5692 50.0908 90.0936 50.45 89.4765 50.7029C88.8694 50.9458 88.146 51.0672 87.3062 51.0672ZM89.8407 55.3318V54.9675C89.8407 54.5021 89.6889 54.1783 89.3854 53.9962C89.092 53.8141 88.6873 53.7231 88.1713 53.7231H85.8189C85.3636 53.7231 84.9792 53.6876 84.6655 53.6168C84.362 53.546 84.1192 53.4448 83.9371 53.3133C83.7549 53.1818 83.6234 53.0249 83.5425 52.8428C83.4615 52.6708 83.4211 52.4836 83.4211 52.2813C83.4211 51.8766 83.5526 51.5731 83.8156 51.3707C84.0787 51.1582 84.4328 51.0166 84.878 50.9458C85.3232 50.8749 85.8139 50.8598 86.3501 50.9002L87.3062 51.0672C86.6688 51.0874 86.1933 51.1431 85.8796 51.2341C85.5761 51.3151 85.4243 51.482 85.4243 51.7349C85.4243 51.8867 85.4851 52.0081 85.6065 52.0992C85.7279 52.1801 85.8999 52.2206 86.1225 52.2206H88.5962C89.2741 52.2206 89.8508 52.2914 90.3263 52.4331C90.812 52.5848 91.1813 52.8327 91.4342 53.1767C91.6872 53.5308 91.8136 54.0114 91.8136 54.6185V55.3318H89.8407ZM87.3062 49.6406C87.7413 49.6406 88.1207 49.5698 88.4445 49.4281C88.7783 49.2865 89.0363 49.0841 89.2185 48.8211C89.4006 48.5479 89.4916 48.2241 89.4916 47.8498C89.4916 47.4653 89.4006 47.1365 89.2185 46.8633C89.0363 46.5901 88.7834 46.3827 88.4596 46.2411C88.1359 46.0893 87.7514 46.0134 87.3062 46.0134C86.8712 46.0134 86.4867 46.0893 86.1528 46.2411C85.8189 46.3827 85.5609 46.5901 85.3788 46.8633C85.1967 47.1365 85.1056 47.4653 85.1056 47.8498C85.1056 48.2241 85.1967 48.5479 85.3788 48.8211C85.5609 49.0841 85.8139 49.2865 86.1376 49.4281C86.4715 49.5698 86.8611 49.6406 87.3062 49.6406ZM95.9856 41.3694V43.0995H93.694V41.3694H95.9856ZM93.8458 44.6779H95.8187V52.2206H93.8458V44.6779ZM97.7852 44.6779H99.7582V52.2206H97.7852V44.6779ZM103.264 44.5109C103.729 44.5109 104.159 44.5716 104.554 44.6931C104.949 44.8145 105.293 45.0016 105.586 45.2546C105.879 45.5075 106.107 45.8313 106.269 46.2259C106.431 46.6103 106.512 47.0707 106.512 47.6069V52.2206H104.539V47.956C104.539 47.3186 104.382 46.8532 104.068 46.5598C103.765 46.2562 103.264 46.1045 102.566 46.1045C102.04 46.1045 101.564 46.2056 101.139 46.408C100.714 46.6103 100.37 46.8683 100.107 47.182C99.8442 47.4855 99.6924 47.8042 99.6519 48.1381L99.6368 47.3641C99.6873 47.01 99.8037 46.666 99.9858 46.3321C100.168 45.9982 100.411 45.6947 100.714 45.4215C101.028 45.1382 101.397 44.9156 101.822 44.7538C102.247 44.5919 102.728 44.5109 103.264 44.5109Z" fill="black"/>
<path d="M10.4884 12.911C9.8746 11.0316 11.7768 9.3132 13.5844 10.1142L30.7637 17.7268C32.6286 18.5532 32.557 21.2238 30.6506 21.9491L24.6446 24.2339C24.1103 24.4372 23.6717 24.8334 23.4154 25.3443L20.534 31.088C19.6194 32.9112 16.9553 32.7119 16.322 30.773L10.4884 12.911Z" fill="#F1BD12"/>
</svg>
