<svg width="90" height="90" viewBox="0 0 41 41" fill="none" xmlns="http://www.w3.org/2000/svg">
<path fillRule="evenodd" clipRule="evenodd" d="M30.1866 27.3344C32.1751 19.9073 27.4478 12.2116 19.6599 10.1247C10.9125 7.77949 -1.48589 13.8618 1.11556 21.2172C1.90071 23.4394 3.44026 23.9663 6.61366 24.0114L6.83506 24.0155C9.09006 24.0421 9.85061 24.2205 10.275 24.9093C10.7137 25.6227 10.7178 26.4591 10.3857 28.5747C10.2483 29.4398 10.2053 29.7411 10.154 30.2024C9.85676 32.8674 10.2914 34.8641 11.9785 36.6804C17.2757 42.3876 27.9439 35.6984 30.1866 27.3344ZM3.04666 20.5346C1.18526 15.2661 11.6915 10.1124 19.1289 12.105C25.8468 13.9049 29.8955 20.4956 28.2063 26.8035C26.3121 33.8678 17.368 39.4766 13.4812 35.2905C12.2635 33.9785 11.9539 32.5578 12.1897 30.432C12.2389 30.0117 12.2799 29.7268 12.4111 28.8945C12.8211 26.2807 12.8149 25.1307 12.0216 23.8371C11.0683 22.2873 9.85061 22.0044 6.86171 21.9675L6.64236 21.9634C4.26641 21.9306 3.44026 21.6477 3.04666 20.5346Z" fill="#AD7D36"/>
<path d="M9.73767 19.4747C9.05805 19.4747 8.40627 19.2047 7.92571 18.7242C7.44515 18.2436 7.17517 17.5918 7.17517 16.9122C7.17517 16.2326 7.44515 15.5808 7.92571 15.1003C8.40627 14.6197 9.05805 14.3497 9.73767 14.3497C10.4173 14.3497 11.0691 14.6197 11.5496 15.1003C12.0302 15.5808 12.3002 16.2326 12.3002 16.9122C12.3002 17.5918 12.0302 18.2436 11.5496 18.7242C11.0691 19.2047 10.4173 19.4747 9.73767 19.4747ZM17.9377 19.4747C17.2581 19.4747 16.6063 19.2047 16.1257 18.7242C15.6451 18.2436 15.3752 17.5918 15.3752 16.9122C15.3752 16.2326 15.6451 15.5808 16.1257 15.1003C16.6063 14.6197 17.2581 14.3497 17.9377 14.3497C18.6173 14.3497 19.2691 14.6197 19.7496 15.1003C20.2302 15.5808 20.5002 16.2326 20.5002 16.9122C20.5002 17.5918 20.2302 18.2436 19.7496 18.7242C19.2691 19.2047 18.6173 19.4747 17.9377 19.4747ZM23.0627 25.6247C22.3831 25.6247 21.7313 25.3547 21.2507 24.8742C20.7701 24.3936 20.5002 23.7418 20.5002 23.0622C20.5002 22.3826 20.7701 21.7308 21.2507 21.2503C21.7313 20.7697 22.3831 20.4997 23.0627 20.4997C23.7423 20.4997 24.3941 20.7697 24.8746 21.2503C25.3552 21.7308 25.6252 22.3826 25.6252 23.0622C25.6252 23.7418 25.3552 24.3936 24.8746 24.8742C24.3941 25.3547 23.7423 25.6247 23.0627 25.6247ZM19.9877 32.7997C19.3081 32.7997 18.6563 32.5297 18.1757 32.0492C17.6951 31.5686 17.4252 30.9168 17.4252 30.2372C17.4252 29.5576 17.6951 28.9058 18.1757 28.4253C18.6563 27.9447 19.3081 27.6747 19.9877 27.6747C20.6673 27.6747 21.3191 27.9447 21.7996 28.4253C22.2802 28.9058 22.5502 29.5576 22.5502 30.2372C22.5502 30.9168 22.2802 31.5686 21.7996 32.0492C21.3191 32.5297 20.6673 32.7997 19.9877 32.7997ZM27.4087 7.38997C27.6517 7.25974 27.9186 7.1799 28.1932 7.15521C28.4679 7.13052 28.7447 7.16149 29.0071 7.24628C29.2695 7.33107 29.5121 7.46792 29.7204 7.64866C29.9286 7.82939 30.0983 8.05028 30.2192 8.29812L38.6099 25.5181C38.75 25.8277 38.7669 26.1789 38.6573 26.5005C38.5477 26.8221 38.3197 27.0899 38.0197 27.2494C37.7198 27.4089 37.3703 27.4482 37.0424 27.3593C36.7145 27.2703 36.4327 27.0599 36.2544 26.7707L26.603 10.2272C26.4649 9.98904 26.3761 9.72552 26.342 9.45233C26.3079 9.17914 26.3291 8.90188 26.4045 8.63709C26.4799 8.37231 26.6079 8.12541 26.7807 7.91115C26.9536 7.69688 27.1679 7.51963 27.4107 7.38997" fill="#AD7D36"/>
<path fillRule="evenodd" clipRule="evenodd" d="M23.6533 7.14206C24.6496 9.01781 26.3285 9.54261 27.9521 8.67956C29.5737 7.81856 30.08 6.13141 29.0817 4.25566C27.9419 2.10726 25.4983 0.159758 23.8788 1.01871C22.2593 1.87766 22.5094 4.99366 23.6533 7.14206ZM25.4614 6.17856C25.1 5.44904 24.8775 4.65863 24.8054 3.84771C24.7754 3.50856 24.7878 3.16699 24.8423 2.83091L24.8792 2.84936C24.9817 2.89856 25.2994 3.04616 25.7053 3.37006C26.3244 3.86411 26.9394 4.59186 27.2715 5.21711C27.741 6.09861 27.6077 6.54141 26.9886 6.87146C26.3736 7.19946 25.9308 7.06006 25.4614 6.18061" fill="#AD7D36"/>
</svg>
